TITLE ""
FILE "1Q_j_2221-2234.mp3" MP3
  TRACK 01 AUDIO
    TITLE "1Q_j_2221-2234_01"
    INDEX 01 00:00:00
  TRACK 02 AUDIO
    TITLE "1Q_j_2221-2234_02"
    INDEX 01 00:00:10
  TRACK 03 AUDIO
    TITLE "1Q_j_2221-2234_03"
    INDEX 01 00:01:12
  TRACK 04 AUDIO
    TITLE "1Q_j_2221-2234_04"
    INDEX 01 00:01:33
  TRACK 05 AUDIO
    TITLE "1Q_j_2221-2234_05"
    INDEX 01 00:03:73
  TRACK 06 AUDIO
    TITLE "1Q_j_2221-2234_06"
    INDEX 01 00:04:04
  TRACK 07 AUDIO
    TITLE "1Q_j_2221-2234_07"
    INDEX 01 00:09:17
  TRACK 08 AUDIO
    TITLE "1Q_j_2221-2234_08"
    INDEX 01 00:09:64
  TRACK 09 AUDIO
    TITLE "1Q_j_2221-2234_09"
    INDEX 01 00:11:12
  TRACK 10 AUDIO
    TITLE "1Q_j_2221-2234_10"
    INDEX 01 00:11:20
  TRACK 11 AUDIO
    TITLE "1Q_j_2221-2234_11"
    INDEX 01 00:13:07
  TRACK 12 AUDIO
    TITLE "1Q_j_2221-2234_12"
    INDEX 01 00:13:13
  TRACK 13 AUDIO
    TITLE "1Q_j_2221-2234_13"
    INDEX 01 00:18:24
  TRACK 14 AUDIO
    TITLE "1Q_j_2221-2234_14"
    INDEX 01 00:18:71
  TRACK 15 AUDIO
    TITLE "1Q_j_2221-2234_15"
    INDEX 01 00:21:28
  TRACK 16 AUDIO
    TITLE "1Q_j_2221-2234_16"
    INDEX 01 00:21:42
  TRACK 17 AUDIO
    TITLE "1Q_j_2221-2234_17"
    INDEX 01 00:23:31
  TRACK 18 AUDIO
    TITLE "1Q_j_2221-2234_18"
    INDEX 01 00:23:39
  TRACK 19 AUDIO
    TITLE "1Q_j_2221-2234_19"
    INDEX 01 00:30:51
  TRACK 20 AUDIO
    TITLE "1Q_j_2221-2234_20"
    INDEX 01 00:31:23
  TRACK 21 AUDIO
    TITLE "1Q_j_2221-2234_21"
    INDEX 01 00:32:53
  TRACK 22 AUDIO
    TITLE "1Q_j_2221-2234_22"
    INDEX 01 00:32:61
  TRACK 23 AUDIO
    TITLE "1Q_j_2221-2234_23"
    INDEX 01 00:35:20
  TRACK 24 AUDIO
    TITLE "1Q_j_2221-2234_24"
    INDEX 01 00:35:28
  TRACK 25 AUDIO
    TITLE "1Q_j_2221-2234_25"
    INDEX 01 00:39:18
  TRACK 26 AUDIO
    TITLE "1Q_j_2221-2234_26"
    INDEX 01 00:39:67
  TRACK 27 AUDIO
    TITLE "1Q_j_2221-2234_27"
    INDEX 01 00:41:54
  TRACK 28 AUDIO
    TITLE "1Q_j_2221-2234_28"
    INDEX 01 00:41:68
  TRACK 29 AUDIO
    TITLE "1Q_j_2221-2234_29"
    INDEX 01 00:44:10
  TRACK 30 AUDIO
    TITLE "1Q_j_2221-2234_30"
    INDEX 01 00:44:15
  TRACK 31 AUDIO
    TITLE "1Q_j_2221-2234_31"
    INDEX 01 00:48:45
  TRACK 32 AUDIO
    TITLE "1Q_j_2221-2234_32"
    INDEX 01 00:49:17
  TRACK 33 AUDIO
    TITLE "1Q_j_2221-2234_33"
    INDEX 01 00:50:18
  TRACK 34 AUDIO
    TITLE "1Q_j_2221-2234_34"
    INDEX 01 00:50:38
  TRACK 35 AUDIO
    TITLE "1Q_j_2221-2234_35"
    INDEX 01 00:51:45
  TRACK 36 AUDIO
    TITLE "1Q_j_2221-2234_36"
    INDEX 01 00:51:53
  TRACK 37 AUDIO
    TITLE "1Q_j_2221-2234_37"
    INDEX 01 00:55:54
  TRACK 38 AUDIO
    TITLE "1Q_j_2221-2234_38"
    INDEX 01 00:56:26
  TRACK 39 AUDIO
    TITLE "1Q_j_2221-2234_39"
    INDEX 01 00:57:59
  TRACK 40 AUDIO
    TITLE "1Q_j_2221-2234_40"
    INDEX 01 00:57:67
  TRACK 41 AUDIO
    TITLE "1Q_j_2221-2234_41"
    INDEX 01 00:59:42
  TRACK 42 AUDIO
    TITLE "1Q_j_2221-2234_42"
    INDEX 01 00:59:50
  TRACK 43 AUDIO
    TITLE "1Q_j_2221-2234_43"
    INDEX 01 01:03:27
  TRACK 44 AUDIO
    TITLE "1Q_j_2221-2234_44"
    INDEX 01 01:04:01
  TRACK 45 AUDIO
    TITLE "1Q_j_2221-2234_45"
    INDEX 01 01:05:23
  TRACK 46 AUDIO
    TITLE "1Q_j_2221-2234_46"
    INDEX 01 01:05:31
  TRACK 47 AUDIO
    TITLE "1Q_j_2221-2234_47"
    INDEX 01 01:06:62
  TRACK 48 AUDIO
    TITLE "1Q_j_2221-2234_48"
    INDEX 01 01:06:68
  TRACK 49 AUDIO
    TITLE "1Q_j_2221-2234_49"
    INDEX 01 01:11:53
  TRACK 50 AUDIO
    TITLE "1Q_j_2221-2234_50"
    INDEX 01 01:12:24
  TRACK 51 AUDIO
    TITLE "1Q_j_2221-2234_51"
    INDEX 01 01:14:73
  TRACK 52 AUDIO
    TITLE "1Q_j_2221-2234_52"
    INDEX 01 01:15:06
  TRACK 53 AUDIO
    TITLE "1Q_j_2221-2234_53"
    INDEX 01 01:16:45
  TRACK 54 AUDIO
    TITLE "1Q_j_2221-2234_54"
    INDEX 01 01:16:53
  TRACK 55 AUDIO
    TITLE "1Q_j_2221-2234_55"
    INDEX 01 01:21:66
  TRACK 56 AUDIO
    TITLE "1Q_j_2221-2234_56"
    INDEX 01 01:22:36
  TRACK 57 AUDIO
    TITLE "1Q_j_2221-2234_57"
    INDEX 01 01:24:05
  TRACK 58 AUDIO
    TITLE "1Q_j_2221-2234_58"
    INDEX 01 01:24:13
  TRACK 59 AUDIO
    TITLE "1Q_j_2221-2234_59"
    INDEX 01 01:26:02
  TRACK 60 AUDIO
    TITLE "1Q_j_2221-2234_60"
    INDEX 01 01:26:10
  TRACK 61 AUDIO
    TITLE "1Q_j_2221-2234_61"
    INDEX 01 01:33:04
  TRACK 62 AUDIO
    TITLE "1Q_j_2221-2234_62"
    INDEX 01 01:33:51
  TRACK 63 AUDIO
    TITLE "1Q_j_2221-2234_63"
    INDEX 01 01:34:72
  TRACK 64 AUDIO
    TITLE "1Q_j_2221-2234_64"
    INDEX 01 01:35:05
  TRACK 65 AUDIO
    TITLE "1Q_j_2221-2234_65"
    INDEX 01 01:37:04
  TRACK 66 AUDIO
    TITLE "1Q_j_2221-2234_66"
    INDEX 01 01:37:12
  TRACK 67 AUDIO
    TITLE "1Q_j_2221-2234_67"
    INDEX 01 01:43:06
  TRACK 68 AUDIO
    TITLE "1Q_j_2221-2234_68"
    INDEX 01 01:43:52
  TRACK 69 AUDIO
    TITLE "1Q_j_2221-2234_69"
    INDEX 01 01:45:11
  TRACK 70 AUDIO
    TITLE "1Q_j_2221-2234_70"
    INDEX 01 01:45:19
  TRACK 71 AUDIO
    TITLE "1Q_j_2221-2234_71"
    INDEX 01 01:47:59
  TRACK 72 AUDIO
    TITLE "1Q_j_2221-2234_72"
    INDEX 01 01:47:65
  TRACK 73 AUDIO
    TITLE "1Q_j_2221-2234_73"
    INDEX 01 01:53:32
  TRACK 74 AUDIO
    TITLE "1Q_j_2221-2234_74"
    INDEX 01 01:54:02
  TRACK 75 AUDIO
    TITLE "1Q_j_2221-2234_75"
    INDEX 01 01:55:21
  TRACK 76 AUDIO
    TITLE "1Q_j_2221-2234_76"
    INDEX 01 01:55:31
  TRACK 77 AUDIO
    TITLE "1Q_j_2221-2234_77"
    INDEX 01 01:56:54
  TRACK 78 AUDIO
    TITLE "1Q_j_2221-2234_78"
    INDEX 01 01:56:62
  TRACK 79 AUDIO
    TITLE "1Q_j_2221-2234_79"
    INDEX 01 02:04:30
  TRACK 80 AUDIO
    TITLE "1Q_j_2221-2234_80"
    INDEX 01 02:05:02
  TRACK 81 AUDIO
    TITLE "1Q_j_2221-2234_81"
    INDEX 01 02:05:73
  TRACK 82 AUDIO
    TITLE "1Q_j_2221-2234_82"
    INDEX 01 02:06:15
  TRACK 83 AUDIO
    TITLE "1Q_j_2221-2234_83"
    INDEX 01 02:08:63
  TRACK 84 AUDIO
    TITLE "1Q_j_2221-2234_84"
    INDEX 01 02:08:69
  TRACK 85 AUDIO
    TITLE "1Q_j_2221-2234_85"
    INDEX 01 02:14:27
